<svg id="Camada_1" data-name="Camada 1" xmlns="http://www.w3.org/2000/svg" viewBox="0 0 506.26 104.2"><defs><style>.cls-1,.cls-2{fill:#00ff5f;}.cls-2{opacity:0.05;}.cls-3{fill:#222;}.cls-4{fill:#fff;}.cls-5{fill:#1d1d1b;}</style></defs><title>logo</title><polyline class="cls-1" points="0.25 27.2 77.18 27.2 77.18 104.12"/><path class="cls-2" d="M168.74,253.19" transform="translate(-146.87 -148.81)"/><line class="cls-2" y1="82.5" x2="21.87" y2="82.5"/><path class="cls-3" d="M259.93,220" transform="translate(-146.87 -148.81)"/><path class="cls-3" d="M317.26,214.84v-.28c0-21.07,16.75-38.52,39.37-38.52s39.23,17.17,39.23,38.24v.28c0,20.93-16.75,38.37-39.51,38.37C333.87,252.93,317.26,235.77,317.26,214.84Zm61.71,0v-.28c0-13-9.36-23.72-22.62-23.72-13.54,0-22.2,10.6-22.2,23.44v.28c0,12.84,9.36,23.58,22.48,23.58C370.31,238.14,379,227.54,379,214.84Z" transform="translate(-146.87 -148.81)"/><path class="cls-3" d="M390.46,176.33h18.39l15.71,52.13L441.91,176h15.41l17.35,52.42,16-52.13h18.09l-25.65,76.61H467l-17.49-52-17.65,52h-16Z" transform="translate(-146.87 -148.81)"/><path class="cls-3" d="M503.37,214.7v-.28c0-21.07,14.82-38.38,35.73-38.38,23.26,0,33.45,18.56,33.45,39.77v4.61H520.13c1.8,12,10.24,18.7,21,18.7,8.17,0,14-3.07,19.81-8.79l9.83,8.79c-6.93,8.37-16.48,13.81-29.91,13.81C519.71,252.93,503.37,237.44,503.37,214.7Zm54.14-5.44c-1.1-10.89-7.47-19.4-18.55-19.4-10.25,0-17.45,7.95-19,19.4Z" transform="translate(-146.87 -148.81)"/><path class="cls-4" d="M593.86,148.81" transform="translate(-146.87 -148.81)"/><path class="cls-5" d="M615.07,176a37.58,37.58,0,0,0-21.28,6.57h0l.07-33.8H577l0,65.68h0A38.06,38.06,0,1,0,615.07,176Zm0,62.1c-12,0-21.7-10.59-21.7-23.65s9.71-23.65,21.7-23.65,21.7,10.59,21.7,23.65S627,238.14,615.05,238.14Z" transform="translate(-146.87 -148.81)"/><path class="cls-3" d="M242,176v77h17.92v-61.1H277.4s17.08.28,17.08,17.08v44h17.78v-50.8S310.57,176,286,176Z" transform="translate(-146.87 -148.81)"/></svg>